<?xml version="1.0" standalone="no"?>
<!DOCTYPE svg PUBLIC "-//W3C//DTD SVG 20010904//EN"
 "http://www.w3.org/TR/2001/REC-SVG-20010904/DTD/svg10.dtd">
<svg version="1.0" xmlns="http://www.w3.org/2000/svg"
 width="711.000000pt" height="711.000000pt" viewBox="0 0 711.000000 711.000000"
 preserveAspectRatio="xMidYMid meet">
<metadata>
Created by potrace 1.11, written by Peter Selinger 2001-2013
</metadata>
<g transform="translate(0.000000,711.000000) scale(0.100000,-0.100000)"
fill="#000000" stroke="none">
<path d="M760 7095 c-350 -71 -618 -318 -727 -670 l-28 -90 0 -2775 c0 -2659
1 -2778 18 -2840 106 -375 368 -626 732 -701 86 -18 197 -19 2800 -19 2603 0
2714 1 2800 19 216 45 393 149 537 318 105 124 183 296 208 458 7 49 10 897 8
2805 l-3 2735 -28 90 c-111 356 -380 602 -735 671 -106 20 -5481 19 -5582 -1z
m5534 -420 c95 -25 166 -66 238 -136 75 -73 130 -173 148 -268 7 -35 10 -957
10 -2720 0 -2939 4 -2728 -63 -2855 -40 -78 -135 -173 -213 -213 -127 -67 84
-63 -2859 -63 -2943 0 -2732 -4 -2859 63 -78 40 -173 135 -213 213 -67 127
-63 -84 -63 2855 0 1763 3 2685 10 2720 35 188 191 352 382 403 82 23 5397 23
5482 1z"/>
<path d="M970 6369 c-58 -26 -87 -53 -116 -111 -63 -123 -4 -282 125 -335 51
-22 140 -19 187 5 160 83 191 277 65 395 -74 69 -172 86 -261 46z"/>
<path d="M1745 6371 c-23 -10 -59 -39 -82 -65 -136 -155 -28 -396 177 -397
180 -1 294 182 216 346 -13 28 -34 60 -47 72 -66 60 -185 80 -264 44z"/>
<path d="M2509 6362 c-142 -74 -177 -248 -74 -369 47 -55 106 -83 178 -83 71
0 120 20 171 68 104 100 102 250 -6 347 -80 73 -175 86 -269 37z"/>
<path d="M3382 5410 c-303 -43 -564 -177 -773 -397 -233 -246 -352 -547 -352
-893 0 -331 118 -623 351 -871 247 -262 583 -409 937 -409 558 0 1053 364
1230 905 81 250 77 560 -11 807 -130 364 -426 663 -784 793 -129 46 -234 65
-390 70 -80 2 -173 0 -208 -5z m397 -366 c220 -55 416 -191 543 -378 163 -238
211 -558 123 -817 -25 -73 -94 -210 -122 -241 -14 -16 -18 -13 -53 30 -50 64
-94 100 -160 131 l-55 26 -450 7 c-265 4 -475 3 -511 -3 -124 -18 -208 -65
-271 -150 -21 -27 -40 -49 -43 -49 -12 0 -92 130 -119 195 -89 211 -77 506 28
730 149 318 436 518 786 548 77 7 211 -6 304 -29z"/>
<path d="M3472 4779 c-110 -19 -220 -92 -280 -186 -46 -73 -65 -151 -60 -248
10 -194 149 -350 345 -387 175 -32 366 70 446 239 30 63 32 76 32 173 0 97 -2
110 -32 172 -40 85 -97 147 -170 185 -100 53 -186 69 -281 52z"/>
<path d="M733 2320 c-89 -21 -137 -76 -137 -155 0 -68 21 -101 90 -135 l49
-25 2820 0 c2800 0 2820 0 2860 20 113 57 116 214 5 279 l-35 21 -2810 2
c-1545 0 -2824 -2 -2842 -7z"/>
<path d="M1645 1555 c-121 -32 -161 -178 -73 -264 18 -17 48 -36 67 -41 23 -6
712 -10 1922 -10 l1886 0 34 23 c108 72 107 218 -1 281 -35 21 -38 21 -1910
23 -1541 1 -1884 -1 -1925 -12z"/>
</g>
</svg>
